<svg xmlns="http://www.w3.org/2000/svg" viewBox="0 0 730 295" width="730" height="295">
	<defs>
		<linearGradient id="grd1" gradientUnits="userSpaceOnUse"  x1="187.929" y1="132.236" x2="175.456" y2="203.148">
			<stop offset="0" stop-color="#e46a56"  />
			<stop offset="1" stop-color="#e46a56" stop-opacity="0" />
		</linearGradient>
		<linearGradient id="grd2" gradientUnits="userSpaceOnUse"  x1="483.539" y1="173.536" x2="492.205" y2="245.013">
			<stop offset="0" stop-color="#6773e2"  />
			<stop offset="1" stop-color="#6773e2" stop-opacity="0" />
		</linearGradient>
	</defs>
	<style>
		tspan { white-space:pre }
		.shp0 { fill: #fff1f1 } 
		.shp1 { fill: url(#grd1) } 
		.shp2 { fill: url(#grd2) } 
	</style>
	<path id="Layer" class="shp0" d="M50.78 264.79L39.61 172.66C38.03 159.56 38.94 153.81 47.34 148.35L47.3 147.96L3.81 153.23L3.86 153.63C13.33 156.91 15.59 162.28 17.18 175.38L28.35 267.51C29.94 280.61 29.02 286.36 20.62 291.81L20.66 292.21L64.15 286.94L64.1 286.54C54.63 283.26 52.37 277.89 50.78 264.79Z" />
	<path id="Layer" fill-rule="evenodd" class="shp0" d="M311.94 170.06L311.77 169.69C318.09 161.92 317.19 156.17 311.65 144.19L272.69 59.96C267.15 47.98 263.34 43.57 253.33 43.36L253.16 42.99L290.19 25.86C313.79 14.95 336.02 16.34 346.52 39.03C354.67 56.63 345.13 73.17 329.1 82.34C346.58 75.36 371.43 76.2 381.17 97.26C392.51 121.76 378.19 139.41 351.87 151.58L311.94 170.06ZM314.9 87.37C330.14 80.32 334.95 66.42 326.64 48.45C318.24 30.29 304.28 24.41 289.03 31.47L285.22 33.23L311.08 89.14L314.9 87.37ZM346.49 149C363.37 141.19 369.37 126.52 360.3 106.92C351.4 87.68 336.25 82.56 319.37 90.37L313.02 93.31L340.14 151.94L346.49 149Z" />
	<path id="Layer" class="shp0" d="M711.3 106.65C709.7 110.07 706.64 113.06 702.47 113.56C696.31 114.31 690.45 109.18 680.92 110.33C653.32 113.68 634.97 146.73 640.05 188.62C645.22 231.31 667.87 256.97 694.88 253.7C714.73 251.29 726.83 233.1 727.1 207.08L725.66 206.85C722.47 230.41 713.21 238.78 701.7 240.18C684.23 242.3 669.57 221.11 664.88 182.39C660.4 145.46 665.19 116.88 683.46 114.66C696.37 113.09 709.57 132.25 718.12 154.58L718.71 154.51L711.3 106.65Z" />
	<path id="Layer" class="shp1" d="M152.47 126L223.38 138.47L210.91 209.38L140 196.91L152.47 126Z" />
	<path id="Layer" class="shp2" d="M447.8 177.87L519.28 169.2L527.94 240.68L456.47 249.35L447.8 177.87Z" />
</svg>