<svg width="1212" height="497" viewBox="0 0 1212 497" fill="none" xmlns="http://www.w3.org/2000/svg">
   <rect x="19.124" y="14.3925" width="48" height="48" transform="rotate(23.4791 19.124 14.3925)" fill="url(#paint0_linear)"/>
   <path d="M62 34.7032C92 10.2034 202.775 -26.9741 275.5 34.7033C333.5 83.8927 342 160.892 314 220.703" stroke="url(#paint1_linear)" stroke-width="2"/>
   <rect x="271" y="236.013" width="48" height="48" transform="rotate(-22.4232 271 236.013)" fill="url(#paint2_linear)"/>
   <rect x="861.356" y="437.933" width="48" height="48" transform="rotate(-104.387 861.356 437.933)" fill="url(#paint3_linear)"/>
   <rect x="1113.9" y="43.21" width="48" height="48" transform="rotate(20.5609 1113.9 43.21)" fill="url(#paint4_linear)"/>
   <path d="M746.682 331.335L851.214 393.027" stroke="url(#paint5_linear)" stroke-width="2"/>
   <path d="M496.679 373.298C517.983 330.714 531.794 328.418 538.11 366.41C546.686 417.996 560.497 415.7 579.541 359.522C598.586 303.345 612.397 301.049 620.973 352.634C635.054 437.332 648.864 435.036 662.404 345.746C675.944 256.457 689.754 254.161 703.835 338.858C715.946 411.705 729.757 409.409 745.267 331.971L1099.5 87.6741" stroke="url(#paint6_linear)" stroke-width="2"/>
   <g filter="url(#filter0_d)">
      <circle cx="495.976" cy="373.322" r="7.5" transform="rotate(-15.96 495.976 373.322)" fill="#36B7A0"/>
   </g>
   <defs>
      <filter id="filter0_d" x="476.703" y="354.049" width="38.5463" height="38.5463" filterUnits="userSpaceOnUse" color-interpolation-filters="sRGB">
         <feFlood flood-opacity="0" result="BackgroundImageFix"/>
         <feColorMatrix in="SourceAlpha" type="matrix" values="0 0 0 0 0 0 0 0 0 0 0 0 0 0 0 0 0 0 127 0"/>
         <feOffset/>
         <feGaussianBlur stdDeviation="5"/>
         <feColorMatrix type="matrix" values="0 0 0 0 0.958333 0 0 0 0 0.376545 0 0 0 0 0.33941 0 0 0 1 0"/>
         <feBlend mode="normal" in2="BackgroundImageFix" result="effect1_dropShadow"/>
         <feBlend mode="normal" in="SourceGraphic" in2="effect1_dropShadow" result="shape"/>
      </filter>
      <linearGradient id="paint0_linear" x1="43.124" y1="14.3925" x2="43.124" y2="62.3925" gradientUnits="userSpaceOnUse">
         <stop stop-color="#E46A56"/>
         <stop offset="1" stop-color="#E46A56" stop-opacity="0"/>
      </linearGradient>
      <linearGradient id="paint1_linear" x1="195.763" y1="12.828" x2="195.763" y2="220.704" gradientUnits="userSpaceOnUse">
         <stop stop-color="#E46A56"/>
         <stop offset="1" stop-color="#FFF1F1"/>
      </linearGradient>
      <linearGradient id="paint2_linear" x1="295" y1="236.013" x2="295" y2="284.013" gradientUnits="userSpaceOnUse">
         <stop stop-color="#6773E2"/>
         <stop offset="1" stop-color="#E46A56" stop-opacity="0"/>
      </linearGradient>
      <linearGradient id="paint3_linear" x1="885.356" y1="437.933" x2="858.943" y2="482.751" gradientUnits="userSpaceOnUse">
         <stop stop-color="#E46A56"/>
         <stop offset="1" stop-color="#6773E2"/>
      </linearGradient>
      <linearGradient id="paint4_linear" x1="1152.21" y1="39.5664" x2="1137.44" y2="91.9753" gradientUnits="userSpaceOnUse">
         <stop stop-color="#FFF1F1" stop-opacity="0"/>
         <stop offset="1" stop-color="#FFF1F1"/>
      </linearGradient>
      <linearGradient id="paint5_linear" x1="792.552" y1="323.709" x2="805.344" y2="400.653" gradientUnits="userSpaceOnUse">
         <stop stop-color="#6773E2"/>
         <stop offset="1" stop-color="#E46A56"/>
      </linearGradient>
      <linearGradient id="paint6_linear" x1="783.091" y1="140.277" x2="823.647" y2="384.219" gradientUnits="userSpaceOnUse">
         <stop stop-color="#FFF1F1"/>
         <stop offset="1" stop-color="#6773E2"/>
      </linearGradient>
   </defs>
</svg>