<svg width="1292" height="305" viewBox="0 0 1292 305" fill="none" xmlns="http://www.w3.org/2000/svg">
<rect x="550.453" y="120.354" width="32" height="32" transform="rotate(3.28225 550.453 120.354)" stroke="#FFF1F1"/>
<rect width="33" height="33" transform="matrix(0.893265 0.44953 0.44953 -0.893265 12.001 30.229)" fill="url(#paint0_linear)"/>
<rect x="1249.31" y="238.001" width="33" height="33" transform="rotate(-86.5142 1249.31 238.001)" fill="url(#paint1_linear)"/>
<path d="M41.0142 43.5601L92.2005 190.231L549.149 151.831" stroke="url(#paint2_linear)" stroke-linecap="round"/>
<path d="M582.303 122.55C640.466 77.6225 662.731 81.4532 649.099 134.042C639.116 169.68 661.381 173.51 715.894 145.534C771.119 117.68 793.384 121.511 782.689 157.026C771.33 195.357 793.595 199.187 849.484 168.518C905.199 137.819 927.464 141.649 916.279 180.01C897.439 251.479 919.705 255.31 983.075 191.502C1044.54 127.367 1066.81 131.198 1049.87 202.994C1038.12 249.315 1060.39 253.146 1116.67 214.486C1173.73 175.961 1195.99 179.792 1183.46 225.978C1162.26 311.325 1184.53 315.155 1250.26 237.47" stroke="url(#paint3_linear)" stroke-linecap="round"/>
<g filter="url(#filter0_d)">
<circle cx="758.284" cy="129.268" r="7.5" transform="rotate(3.28225 758.284 129.268)" fill="#36B7A0"/>
</g>
<defs>
<filter id="filter0_d" x="740.367" y="111.351" width="35.8342" height="35.8342" filterUnits="userSpaceOnUse" color-interpolation-filters="sRGB">
<feFlood flood-opacity="0" result="BackgroundImageFix"/>
<feColorMatrix in="SourceAlpha" type="matrix" values="0 0 0 0 0 0 0 0 0 0 0 0 0 0 0 0 0 0 127 0"/>
<feOffset/>
<feGaussianBlur stdDeviation="5"/>
<feColorMatrix type="matrix" values="0 0 0 0 0.895543 0 0 0 0 0.414007 0 0 0 0 0.335886 0 0 0 1 0"/>
<feBlend mode="normal" in2="BackgroundImageFix" result="effect1_dropShadow"/>
<feBlend mode="normal" in="SourceGraphic" in2="effect1_dropShadow" result="shape"/>
</filter>
<linearGradient id="paint0_linear" x1="16.5" y1="0" x2="16.5" y2="33" gradientUnits="userSpaceOnUse">
<stop stop-color="#6773E2"/>
<stop offset="1" stop-color="#6773E2" stop-opacity="0"/>
</linearGradient>
<linearGradient id="paint1_linear" x1="1265.81" y1="238.001" x2="1265.81" y2="271.001" gradientUnits="userSpaceOnUse">
<stop stop-color="#E46A56"/>
<stop offset="1" stop-color="#E46A56" stop-opacity="0"/>
</linearGradient>
<linearGradient id="paint2_linear" x1="36.1191" y1="116.952" x2="549.594" y2="144.779" gradientUnits="userSpaceOnUse">
<stop stop-color="#6773E2"/>
<stop offset="1" stop-color="#FFF1F1"/>
</linearGradient>
<linearGradient id="paint3_linear" x1="580.26" y1="129.096" x2="1249.71" y2="240.883" gradientUnits="userSpaceOnUse">
<stop stop-color="#FFF1F1"/>
<stop offset="1" stop-color="#E46A56"/>
</linearGradient>
</defs>
</svg>
