<svg width="416" height="482" viewBox="0 0 416 482" fill="none" xmlns="http://www.w3.org/2000/svg">
<rect x="70.6748" y="73.8365" width="48" height="48" transform="rotate(139.756 70.6748 73.8365)" fill="url(#paint0_linear)"/>
<rect x="356.395" y="380.449" width="48" height="48" transform="rotate(23.4791 356.395 380.449)" fill="url(#paint1_linear)"/>
<path d="M70.2366 73.9641C120.271 73.3003 129.394 83.0651 98.4349 104.226C28.8336 156.261 38.3711 166.509 127.047 134.972C213.187 100.709 222.724 110.958 155.66 165.719C122.26 191.127 131.798 201.376 184.272 196.465C237.733 192.613 247.27 202.861 212.885 227.211C182.139 248.602 191.677 258.851 241.497 257.957C291.532 257.293 301.069 267.542 270.11 288.703C222.791 322.935 232.329 333.183 298.722 319.449C364.042 304.561 373.58 314.81 327.335 350.195C282.192 384.651 292.233 394.904 356.451 380.946" stroke="url(#paint2_linear)" stroke-linecap="round"/>
<g filter="url(#filter0_d)">
<circle cx="236.189" cy="257.807" r="7.5" transform="rotate(-6.52088 236.189 257.807)" fill="#36B7A0"/>
</g>
<defs>
<filter id="filter0_d" x="217.886" y="239.504" width="36.6064" height="36.6064" filterUnits="userSpaceOnUse" color-interpolation-filters="sRGB">
<feFlood flood-opacity="0" result="BackgroundImageFix"/>
<feColorMatrix in="SourceAlpha" type="matrix" values="0 0 0 0 0 0 0 0 0 0 0 0 0 0 0 0 0 0 127 0"/>
<feOffset/>
<feGaussianBlur stdDeviation="5"/>
<feColorMatrix type="matrix" values="0 0 0 0 0.958333 0 0 0 0 0.376545 0 0 0 0 0.33941 0 0 0 1 0"/>
<feBlend mode="normal" in2="BackgroundImageFix" result="effect1_dropShadow"/>
<feBlend mode="normal" in="SourceGraphic" in2="effect1_dropShadow" result="shape"/>
</filter>
<linearGradient id="paint0_linear" x1="94.6748" y1="73.8365" x2="94.6748" y2="121.837" gradientUnits="userSpaceOnUse">
<stop stop-color="#6773E2"/>
<stop offset="1" stop-color="#6773E2" stop-opacity="0"/>
</linearGradient>
<linearGradient id="paint1_linear" x1="380.395" y1="380.449" x2="380.395" y2="428.449" gradientUnits="userSpaceOnUse">
<stop stop-color="#E46A56"/>
<stop offset="1" stop-color="#E46A56" stop-opacity="0"/>
</linearGradient>
<linearGradient id="paint2_linear" x1="68.6833" y1="74.6448" x2="355.891" y2="381.513" gradientUnits="userSpaceOnUse">
<stop stop-color="#6773E2"/>
<stop offset="1" stop-color="#E36956"/>
</linearGradient>
</defs>
</svg>
