<svg width="64" height="24" viewBox="0 0 64 24" fill="none" xmlns="http://www.w3.org/2000/svg">
<path d="M9.31478 17.7941V5.48591C9.31478 3.35192 10.9933 1.261 12.125 0.388001V0.323334L0 0.323358V0.388025C1.164 1.26103 2.81578 3.35192 2.81578 5.48591V17.7941C2.81578 19.9281 1.164 22.019 0 22.892V22.9567L12.125 22.9567V22.892C10.9933 22.019 9.31478 19.9281 9.31478 17.7941Z" fill="#FFF1F1"/>
<path d="M31.2967 22.9567C36.2437 22.9567 40.1237 21.3077 40.1237 16.9103C40.1237 12.9657 36.4377 11.3813 33.1073 11.2197C36.179 11.0257 39.0243 9.15033 39.0243 5.94933C39.0243 1.94 35.4677 0.323334 30.8763 0.323334H19.5352V0.388001C20.6992 1.261 23.0193 3.35189 23.0193 5.48589V17.7941C23.0193 19.9281 20.6992 22.019 19.5352 22.892V22.9567H31.2967ZM29.5183 10.9933V1.09933H29.9387C31.8463 1.09933 33.0427 2.97467 33.0427 6.04634C33.0427 9.15033 31.8463 10.9933 29.9387 10.9933H29.5183ZM29.5183 22.1807V11.7047H30.262C32.5577 11.7047 33.8833 13.6123 33.8833 16.9103C33.8833 20.2407 32.5577 22.1807 30.262 22.1807H29.5183Z" fill="#FFF1F1"/>
<path d="M62.4835 0C61.9662 0.614333 61.5458 0.808333 60.8668 0.808333C59.8645 0.808333 58.7005 0 56.6635 0C51.0698 0 46.4785 4.72067 46.4785 12.2543C46.4785 18.818 50.3262 23.28 55.6612 23.28C59.5735 23.28 62.5482 20.564 63.0655 16.2637L62.8715 16.199C61.8692 19.1413 60.2202 20.0143 58.4742 20.0143C55.4025 20.0143 53.4302 16.4253 53.4302 10.3467C53.4302 5.10867 54.8305 2.7483 57.4171 2.7483C59.7451 2.7483 61.0609 4.10633 62.5482 8.18033H62.6775L62.4835 0Z" fill="#FFF1F1"/>
</svg>
