<svg width="609" height="342" viewBox="0 0 609 342" fill="none" xmlns="http://www.w3.org/2000/svg">
<rect x="19.123" y="75.3924" width="48" height="48" transform="rotate(23.4791 19.123 75.3924)" fill="url(#paint0_linear)"/>
<path d="M62 95.7031C92 71.2034 202.775 34.0258 275.5 95.7032C333.5 144.893 342 221.892 314 281.703" stroke="url(#paint1_linear)" stroke-width="2"/>
<rect x="271" y="297.013" width="48" height="48" transform="rotate(-22.4232 271 297.013)" fill="url(#paint2_linear)"/>
<rect x="589.557" y="265.992" width="48" height="48" transform="rotate(-156.521 589.557 265.992)" fill="url(#paint3_linear)"/>
<path d="M546.68 245.681C516.68 270.181 405.904 307.358 333.18 245.681C275.18 196.491 266.68 119.492 294.68 59.6808" stroke="url(#paint4_linear)" stroke-width="2"/>
<rect x="275" y="18.3094" width="48" height="48" transform="rotate(-22.4232 275 18.3094)" fill="url(#paint5_linear)"/>
<defs>
<linearGradient id="paint0_linear" x1="43.123" y1="75.3924" x2="43.123" y2="123.392" gradientUnits="userSpaceOnUse">
<stop stop-color="#E46A56"/>
<stop offset="1" stop-color="#E46A56" stop-opacity="0"/>
</linearGradient>
<linearGradient id="paint1_linear" x1="195.763" y1="73.8279" x2="195.763" y2="281.704" gradientUnits="userSpaceOnUse">
<stop stop-color="#E46A56"/>
<stop offset="1" stop-color="#FFF1F1"/>
</linearGradient>
<linearGradient id="paint2_linear" x1="295" y1="297.013" x2="295" y2="345.013" gradientUnits="userSpaceOnUse">
<stop stop-color="#6773E2"/>
<stop offset="1" stop-color="#E46A56" stop-opacity="0"/>
</linearGradient>
<linearGradient id="paint3_linear" x1="613.557" y1="265.992" x2="613.557" y2="313.992" gradientUnits="userSpaceOnUse">
<stop stop-color="#E46A56"/>
<stop offset="1" stop-color="#E46A56" stop-opacity="0"/>
</linearGradient>
<linearGradient id="paint4_linear" x1="412.917" y1="267.556" x2="412.917" y2="59.6797" gradientUnits="userSpaceOnUse">
<stop stop-color="#E46A56"/>
<stop offset="1" stop-color="#FFF1F1"/>
</linearGradient>
<linearGradient id="paint5_linear" x1="313.311" y1="14.6658" x2="298.536" y2="67.0747" gradientUnits="userSpaceOnUse">
<stop stop-color="#FFF1F1" stop-opacity="0"/>
<stop offset="1" stop-color="#FFF1F1"/>
</linearGradient>
</defs>
</svg>
