<svg width="754" height="441" viewBox="0 0 754 441" fill="none" xmlns="http://www.w3.org/2000/svg">
<rect x="354.912" y="392.793" width="48" height="48" transform="rotate(-87.2509 354.912 392.793)" fill="url(#paint0_linear)"/>
<rect x="712.549" y="90.004" width="48" height="48" transform="rotate(37.697 712.549 90.004)" fill="url(#paint1_linear)"/>
<path d="M276.736 257.14L358.452 346.893" stroke="url(#paint2_linear)" stroke-width="2"/>
<path d="M25.4689 223.579C58.3749 189.162 72.2487 191.038 67.0905 229.204C60.0866 281.026 73.9605 282.901 108.712 234.829C143.464 186.757 157.338 188.632 150.334 240.454C138.834 325.541 152.708 327.416 191.955 246.08C231.203 164.743 245.076 166.618 233.577 251.705C223.686 324.886 237.56 326.761 275.198 257.33L685.685 128.25" stroke="url(#paint3_linear)" stroke-width="2"/>
<g filter="url(#filter0_d)">
<circle cx="24.7898" cy="223.394" r="7.5" transform="rotate(1.17613 24.7898 223.394)" fill="#36B7A0"/>
</g>
<defs>
<filter id="filter0_d" x="7.13672" y="205.742" width="35.3047" height="35.3047" filterUnits="userSpaceOnUse" color-interpolation-filters="sRGB">
<feFlood flood-opacity="0" result="BackgroundImageFix"/>
<feColorMatrix in="SourceAlpha" type="matrix" values="0 0 0 0 0 0 0 0 0 0 0 0 0 0 0 0 0 0 127 0"/>
<feOffset/>
<feGaussianBlur stdDeviation="5"/>
<feColorMatrix type="matrix" values="0 0 0 0 0.958333 0 0 0 0 0.376545 0 0 0 0 0.33941 0 0 0 1 0"/>
<feBlend mode="normal" in2="BackgroundImageFix" result="effect1_dropShadow"/>
<feBlend mode="normal" in="SourceGraphic" in2="effect1_dropShadow" result="shape"/>
</filter>
<linearGradient id="paint0_linear" x1="378.912" y1="392.793" x2="352.499" y2="437.612" gradientUnits="userSpaceOnUse">
<stop stop-color="#E46A56"/>
<stop offset="1" stop-color="#6773E2"/>
</linearGradient>
<linearGradient id="paint1_linear" x1="750.86" y1="86.3604" x2="736.085" y2="138.769" gradientUnits="userSpaceOnUse">
<stop stop-color="#FFF1F1" stop-opacity="0"/>
<stop offset="1" stop-color="#FFF1F1"/>
</linearGradient>
<linearGradient id="paint2_linear" x1="322.817" y1="263.368" x2="312.37" y2="340.665" gradientUnits="userSpaceOnUse">
<stop stop-color="#6773E2"/>
<stop offset="1" stop-color="#E46A56"/>
</linearGradient>
<linearGradient id="paint3_linear" x1="367.825" y1="85.291" x2="334.704" y2="330.353" gradientUnits="userSpaceOnUse">
<stop stop-color="#FFF1F1"/>
<stop offset="1" stop-color="#6773E2"/>
</linearGradient>
</defs>
</svg>
